<?xml version="1.0" encoding="UTF-8" standalone="no"?>
<!-- Created with Inkscape (http://www.inkscape.org/) -->
<svg
   xmlns:svg="http://www.w3.org/2000/svg"
   xmlns="http://www.w3.org/2000/svg"
   version="1.0"
   width="819.67322"
   height="221.45668"
   id="svg1882">
  <defs
     id="defs1884" />
  <g
     transform="translate(-421.8795,-104.786)"
     id="layer1">
    <g
       transform="translate(401.7161,-103.5361)"
       id="g4646">
      <path
         d="M 31.264442,219.43067 L 828.73555,219.43067 M 31.264442,418.67023 L 828.73555,418.67023"
         style="font-size:8px;letter-spacing:0;word-spacing:0;fill:none;stroke:#195dad;stroke-width:4.48408413;stroke-linecap:butt;stroke-linejoin:miter;stroke-miterlimit:3.86400008;stroke-dasharray:none;font-family:fnt0, &quot;HelveticaNeue&quot;, Arial"
         id="path146" />
      <path
         d="M 31.313642,244.33211 L 180.74328,244.33211 L 180.74328,393.76177 L 31.313642,393.76177 L 31.313642,244.33211 z "
         style="font-size:8px;letter-spacing:0;word-spacing:0;fill:#195dad;fill-rule:nonzero;stroke:none;stroke-width:0.63800001;stroke-linecap:butt;stroke-linejoin:miter;stroke-miterlimit:3.86400008;stroke-dasharray:none;font-family:fnt0, &quot;HelveticaNeue&quot;, Arial"
         id="path148" />
      <path
         d="M 40.274778,333.99273 L 106.03197,257.78436 L 171.77511,333.99273 L 128.43834,333.99273 L 106.03197,307.09525 L 83.611551,333.99273 L 40.274778,333.99273 z "
         style="font-size:8px;letter-spacing:0;word-spacing:0;fill:white;fill-rule:nonzero;stroke:none;stroke-width:0.63800001;stroke-linecap:butt;stroke-linejoin:miter;stroke-miterlimit:3.86400008;stroke-dasharray:none;font-family:fnt0, &quot;HelveticaNeue&quot;, Arial"
         id="path150" />
      <path
         d="M 40.274778,339.96681 L 83.611551,339.96681 L 83.611551,347.43791 L 128.43834,347.43791 L 128.43834,339.96681 L 171.77511,339.96681 L 171.77511,369.85834 L 40.274778,369.85834 L 40.274778,339.96681 z "
         style="font-size:8px;letter-spacing:0;word-spacing:0;fill:white;fill-rule:nonzero;stroke:none;stroke-width:0.63800001;stroke-linecap:butt;stroke-linejoin:miter;stroke-miterlimit:3.86400008;stroke-dasharray:none;font-family:fnt0, &quot;HelveticaNeue&quot;, Arial"
         id="path152" />
      <path
         d="M 311.72351,350.12277 C 311.72351,375.48803 327.72002,395.79995 354.92674,395.79995 C 382.13346,395.79995 398.137,375.48803 398.137,350.12277 C 398.137,324.02654 382.13346,303.71462 354.92674,303.71462 C 327.72002,303.71462 311.72351,324.02654 311.72351,350.12277 z M 331.04443,350.12277 C 331.04443,334.73771 337.57376,319.96414 354.92674,319.96414 C 372.28675,319.96414 378.80906,334.73771 378.80906,350.12277 C 378.80906,364.77686 372.28675,379.55043 354.92674,379.55043 C 337.57376,379.55043 331.04443,364.77686 331.04443,350.12277 z "
         style="font-size:8px;letter-spacing:0;word-spacing:0;fill:#231f20;fill-rule:evenodd;stroke:none;stroke-width:0.63800001;stroke-linecap:butt;stroke-linejoin:miter;stroke-miterlimit:3.86400008;stroke-dasharray:none;font-family:fnt0, &quot;HelveticaNeue&quot;, Arial"
         id="path154" />
      <path
         d="M 484.85275,335.35621 C 482.51228,315.03729 466.26276,303.71462 446.93479,303.71462 C 419.72808,303.71462 403.73157,324.02654 403.73157,350.12277 C 403.73157,375.48803 419.72808,395.79995 446.93479,395.79995 C 468.48369,395.79995 483.62277,381.76435 485.59073,359.85 L 466.88125,359.85 C 465.4053,371.42569 458.75646,379.55043 446.93479,379.55043 C 429.58182,379.55043 423.05249,364.77686 423.05249,350.12277 C 423.05249,334.73771 429.58182,319.96414 446.93479,319.96414 C 456.54254,319.96414 464.9133,326.61293 466.14328,335.35621 L 484.85275,335.35621 z "
         style="font-size:8px;letter-spacing:0;word-spacing:0;fill:#231f20;fill-rule:evenodd;stroke:none;stroke-width:0.63800001;stroke-linecap:butt;stroke-linejoin:miter;stroke-miterlimit:3.86400008;stroke-dasharray:none;font-family:fnt0, &quot;HelveticaNeue&quot;, Arial"
         id="path156" />
      <path
         d="M 492.54875,393.7055 L 511.87672,393.7055 L 511.87672,355.7876 L 547.45421,355.7876 L 547.45421,393.7055 L 566.78212,393.7055 L 566.78212,305.802 L 547.45421,305.802 L 547.45421,339.53808 L 511.87672,339.53808 L 511.87672,305.802 L 492.54875,305.802 L 492.54875,393.7055 z "
         style="font-size:8px;letter-spacing:0;word-spacing:0;fill:#231f20;fill-rule:evenodd;stroke:none;stroke-width:0.63800001;stroke-linecap:butt;stroke-linejoin:miter;stroke-miterlimit:3.86400008;stroke-dasharray:none;font-family:fnt0, &quot;HelveticaNeue&quot;, Arial"
         id="path158" />
      <path
         d="M 600.70796,393.7055 L 620.02886,393.7055 L 620.02886,322.05859 L 646.37813,322.05859 L 646.37813,305.802 L 574.35869,305.802 L 574.35869,322.05859 L 600.70796,322.05859 L 600.70796,393.7055 z "
         style="font-size:8px;letter-spacing:0;word-spacing:0;fill:#231f20;fill-rule:evenodd;stroke:none;stroke-width:0.63800001;stroke-linecap:butt;stroke-linejoin:miter;stroke-miterlimit:3.86400008;stroke-dasharray:none;font-family:fnt0, &quot;HelveticaNeue&quot;, Arial"
         id="path160" />
      <path
         d="M 653.94764,393.7055 L 673.27561,393.7055 L 673.27561,305.802 L 653.94764,305.802 L 653.94764,393.7055 z "
         style="font-size:8px;letter-spacing:0;word-spacing:0;fill:#231f20;fill-rule:evenodd;stroke:none;stroke-width:0.63800001;stroke-linecap:butt;stroke-linejoin:miter;stroke-miterlimit:3.86400008;stroke-dasharray:none;font-family:fnt0, &quot;HelveticaNeue&quot;, Arial"
         id="path162" />
      <path
         d="M 689.00505,393.7055 L 755.7111,393.7055 L 755.7111,377.45598 L 708.33301,377.45598 L 708.33301,355.91409 L 750.9318,355.91409 L 750.9318,340.89455 L 708.33301,340.89455 L 708.33301,322.05859 L 754.72709,322.05859 L 754.72709,305.802 L 689.00505,305.802 L 689.00505,393.7055 z "
         style="font-size:8px;letter-spacing:0;word-spacing:0;fill:#231f20;fill-rule:evenodd;stroke:none;stroke-width:0.63800001;stroke-linecap:butt;stroke-linejoin:miter;stroke-miterlimit:3.86400008;stroke-dasharray:none;font-family:fnt0, &quot;HelveticaNeue&quot;, Arial"
         id="path164" />
      <path
         d="M 766.46442,393.7055 L 785.79238,393.7055 L 785.79238,357.39004 L 822.62092,357.39004 L 822.62092,342.3705 L 785.79238,342.3705 L 785.79238,322.05859 L 828.31389,322.05859 L 828.31389,305.802 L 766.46442,305.802 L 766.46442,393.7055 z "
         style="font-size:8px;letter-spacing:0;word-spacing:0;fill:#231f20;fill-rule:nonzero;stroke:none;stroke-width:0.63800001;stroke-linecap:butt;stroke-linejoin:miter;stroke-miterlimit:3.86400008;stroke-dasharray:none;font-family:fnt0, &quot;HelveticaNeue&quot;, Arial"
         id="path166" />
      <path
         d="M 230.55315,393.77578 L 249.86002,393.77578 L 249.86002,355.85788 L 285.4375,355.85788 L 285.4375,393.77578 L 304.76545,393.77578 L 304.76545,305.87228 L 285.4375,305.87228 L 285.4375,339.60836 L 249.86002,339.60836 L 249.86002,305.87228 L 230.55315,305.87228 L 230.55315,393.77578 z "
         style="font-size:8px;letter-spacing:0;word-spacing:0;fill:#231f20;fill-rule:nonzero;stroke:none;stroke-width:0.63800001;stroke-linecap:butt;stroke-linejoin:miter;stroke-miterlimit:3.86400008;stroke-dasharray:none;font-family:fnt0, &quot;HelveticaNeue&quot;, Arial"
         id="path168" />
    </g>
  </g>
</svg>
